OpenSim_Sub03_EMGStiffKnee_GRF.mot
version=1
nRows=52
nColumns=19
inDegrees=no
endheader
time	lFx	lFy	lFz	lCOPx	lCOPy	lCOPz	rFx	rFy	rFz	rCOPx	rCOPy	rCOPz	lMx	lMy	lMz	rMx	rMy	rMz
37.98000000	37.17659825	586.02339939	62.85360097	0.86820972	0	-0.71009256	7.22467606	246.48773247	1.07559087	1.21593039	0	-0.39839883	0	-17.70704260	0	0	0.96723221	-0.00000000
37.99000000	36.54906504	544.84171489	57.73935257	0.86412559	0	-0.71091176	-4.93840926	330.72050774	-13.36606975	1.20996384	0	-0.39407001	0	-17.14829651	0	0	0.66755999	-0.00000000
38	35.12519489	499.57761761	51.12898550	0.85969225	0	-0.71119835	-26.02732351	412.59381606	-29.00869484	1.19332279	0	-0.38544568	0	-16.22418525	0	0	0.00946471	0.00000000
38.01000000	32.84472474	451.99942592	42.98092594	0.85491210	0	-0.71084191	-50.11047932	490.59180893	-42.07082872	1.18249096	0	-0.37886054	0	-14.78635742	0	0	-0.83620239	0
38.02000000	29.72984218	402.96059172	33.93892852	0.85024789	0	-0.71018503	-70.86746105	564.68844508	-52.27330300	1.17779555	0	-0.37530009	0	-12.91955297	0	0	-1.46997855	0
38.03000000	25.74463016	352.75698177	25.09727071	0.84617418	0	-0.71021065	-85.17817325	635.48520791	-61.69422738	1.17507553	0	-0.37369826	0	-10.97455166	0	0	-1.87192123	0
38.04000000	20.78253899	301.70743711	17.35665883	0.84368155	0	-0.71215421	-92.27387604	702.00049742	-70.63107124	1.17168479	0	-0.37291995	0	-9.23527732	0	0	-2.30703202	0
38.05000000	14.86016679	250.40370076	11.21625112	0.84313877	0	-0.71622120	-93.13082558	760.64885718	-77.45206935	1.16719737	0	-0.37223602	0	-7.82277604	0	0	-2.75356134	0
38.06000000	8.00884558	200.08143319	6.67931119	0.84085486	0	-0.71900119	-91.07231595	807.56371537	-81.73007168	1.16212637	0	-0.37137610	0	-6.79345043	0	0	-3.20947975	0.00000000
38.07000000	0.55320866	152.36671625	3.41950822	0.82462747	0	-0.70912761	-88.76201351	840.68908478	-84.10323950	1.15700130	0	-0.37035158	0	-6.08114193	0	0	-3.75131447	0.00000000
38.08000000	-6.74408084	108.98974199	0.99511196	0.77334992	0	-0.66449053	-86.30314833	859.55367146	-85.25144152	1.15198835	0	-0.36925603	0	-5.45397813	0	0	-4.39233260	0
38.09000000	-12.72486223	71.76785300	-1.15961575	0.66466114	0	-0.56098165	-82.27809359	865.32642026	-85.65143124	1.14696518	0	-0.36814942	0	-4.59254104	0	0	-5.06898885	0.00000000
38.10000000	-16.15379620	42.34535454	-3.35811440	0.49963038	0	-0.40376821	-75.71163264	859.64737327	-85.54808145	1.14160190	0	-0.36705535	0	-3.46371156	0	0	-5.70871721	-0.00000000
38.11000000	-15.96576887	21.39133255	-5.48538800	0.31180733	0	-0.23605972	-66.92730843	844.06878553	-84.82284625	1.13575454	0	-0.36594991	0	-2.22283482	0	0	-6.20421740	0
38.12000000	-12.97628455	8.27741282	-7.21104369	0.13834343	0	-0.09610178	-56.89640137	820.34637230	-83.14563627	1.12944100	0	-0.36485634	0	-1.01685541	0	0	-6.46024627	0
38.13000000	-9.88915732	1.80301436	-8.10468416	0.02957005	0	-0.01540064	-46.42029095	790.92796524	-80.35998781	1.12288693	0	-0.36378664	0	-0.23556772	0	0	-6.47281142	0.00000000
38.14000000	-8.17256092	-0.03216669	-8.42040859	-0.01263033	0	0.01292059	-36.08380604	758.46315247	-76.82870958	1.11635011	0	-0.36276036	0	0.07813696	0	0	-6.42223708	-0.00000000
38.15000000	-7.64050796	0.31007478	-8.57867438	-0.01798698	0	0.01448436	-26.23466249	725.16691322	-73.19669090	1.10985388	0	-0.36178492	0	0.12515634	0	0	-6.39432469	0
38.16000000	-7.68444853	1.10119727	-8.60126798	-0.01117898	0	0.00827691	-17.02274529	692.86071321	-69.92165102	1.10328593	0	-0.36082393	0	0.08035566	0	0	-6.33368429	0
38.17000000	-7.88158414	1.67243903	-8.61179636	-0.00427439	0	0.00285705	-8.43935673	663.13927470	-67.12837399	1.09665410	0	-0.35985624	0	0.03181550	0	0	-6.30069902	0
38.18000000	-8.05488590	1.94471066	-8.59525698	-0.00049996	0	0.00012195	-0.73782545	637.26024505	-64.83028578	1.09004850	0	-0.35893433	0	0.00447366	0	0	-6.31570787	0
38.19000000	-8.15515945	2.00648840	-8.58954508	0.00072393	0	-0.00065509	5.80703562	616.19512599	-62.94082924	1.08339990	0	-0.35806826	0	-0.00478158	0	0	-6.29333840	0
38.20000000	-8.20604462	1.98030609	-8.61795832	0.00071584	0	-0.00056061	11.20492668	600.47944505	-61.34526817	1.07657489	0	-0.35725898	0	-0.00503704	0	0	-6.25359510	0.00000000
38.21000000	-8.23592444	1.91142150	-8.66255711	0.00038654	0	-0.00027948	15.66550848	590.13060738	-60.17105416	1.06956910	0	-0.35654218	0	-0.00280231	0	0	-6.22247492	0.00000000
38.22000000	-8.23413591	1.84064987	-8.76684429	0.00012304	0	-0.00007761	19.24487621	585.11936490	-59.68932068	1.06248109	0	-0.35596159	0	-0.00093222	0	0	-6.16136899	0
38.23000000	-8.19854482	1.77765093	-8.81473121	-0.00000269	0	0.00001110	21.92065163	585.68142974	-59.77560448	1.05553999	0	-0.35553293	0	-0.00001298	0	0	-6.05757338	0
38.24000000	-8.17146219	1.70745395	-8.77127781	-0.00003462	0	0.00002942	23.73102454	591.96057797	-60.13449486	1.04885401	0	-0.35524258	0	0.00023538	0	0	-5.94347834	-0.00000000
38.25000000	-8.16706078	1.69575524	-8.70454509	-0.00002721	0	0.00002081	25.10628019	603.58414996	-60.77559903	1.04221001	0	-0.35508215	0	0.00019330	0	0	-5.78373820	0
38.26000000	-8.17598736	1.77926143	-8.62860955	-0.00001283	0	0.00000903	26.55092244	619.61764416	-61.77391846	1.03556245	0	-0.35502700	0	0.00009386	0	0	-5.55010787	0.00000000
38.27000000	-8.16505020	1.88152705	-8.57924681	-0.00000317	0	0.00000179	28.09475477	638.67999660	-63.22094010	1.02895326	0	-0.35503269	0	0.00002474	0	0	-5.27436947	-0.00000000
38.28000000	-8.16424153	1.97014742	-8.55032660	0.00000083	0	-0.00000093	29.61698687	659.42486783	-65.20704081	1.02243536	0	-0.35509446	0	-0.00000480	0	0	-4.97238919	0
38.29000000	-8.19922637	2.03132592	-8.53403552	0.00000150	0	-0.00000123	31.19832307	680.87389789	-67.59964246	1.01605621	0	-0.35523022	0	-0.00001039	0	0	-4.62340857	0
38.30000000	-8.25240502	2.09860271	-8.52693517	0.00000099	0	-0.00000074	32.76803039	702.28352833	-70.22527051	1.00994951	0	-0.35546608	0	-0.00000712	0	0	-4.21586016	0
38.31000000	-8.30469751	2.12340634	-8.51039236	0.00000041	0	-0.00000028	33.85138493	722.70426576	-72.85970851	1.00418230	0	-0.35584076	0	-0.00000300	0	0	-3.75643093	0
38.32000000	-8.37329879	2.13881242	-8.47880682	0.00000006	0	-0.00000003	34.07610597	741.41660792	-75.07030648	0.99887627	0	-0.35637380	0	-0.00000054	0	0	-3.26465072	0
38.33000000	-8.44338539	2.17149898	-8.43260408	-0.00000005	0	0.00000005	33.41840980	758.22022224	-76.41809291	0.99409689	0	-0.35703954	0	0.00000035	0	0	-2.73256314	0.00000000
38.34000000	-8.47790941	2.24285002	-8.37359465	-0.00000006	0	0.00000005	32.37229902	772.72210570	-76.77966801	0.98965817	0	-0.35776206	0	0.00000042	0	0	-2.19309343	0
38.35000000	-8.47725294	2.32288042	-8.34043977	-0.00000003	0	0.00000002	31.47301873	784.40953764	-76.37392218	0.98534255	0	-0.35843987	0	0.00000023	0	0	-1.68849477	0.00000000
38.36000000	-8.47336535	2.33342272	-8.32697425	-0.00000001	0	0.00000000	30.92673337	792.72338223	-75.62692262	0.98110872	0	-0.35898730	0	0.00000007	0	0	-1.22302199	0
38.37000000	-8.48647333	2.26804313	-8.34024067	0.00000000	0	-0.00000000	30.67287579	797.13575125	-75.02435615	0.97693016	0	-0.35936299	0	0.00000001	0	0	-0.81445920	0
38.38000000	-8.48555256	2.16146776	-8.36165457	-0.00000001	0	0.00000000	30.74720063	797.33232742	-74.74666256	0.97266631	0	-0.35955879	0	0.00000008	0	0	-0.45456301	0
38.39000000	-8.47545130	2.08531961	-8.39916894	-0.00000004	0	0.00000002	31.03389912	793.42152731	-74.76020312	0.96835479	0	-0.35960494	0	0.00000026	0	0	-0.09444468	0
38.40000000	-8.48593003	2.06848850	-8.44883795	-0.00000009	0	0.00000005	31.31149658	786.14228130	-74.87712565	0.96415512	0	-0.35957566	0	0.00000049	0	0	0.25923738	0
38.41000000	-8.50550476	2.07812447	-8.48897052	-0.00000013	0	0.00000008	31.46078761	776.84588821	-74.64363131	0.96014465	0	-0.35953372	0	0.00000045	0	0	0.56324754	0
38.42000000	-8.49497958	2.07360687	-8.54857825	-0.00000004	0	0.00000002	31.63499581	766.92786126	-73.77332563	0.95612220	0	-0.35951206	0	-0.00000049	0	0	0.87324612	0
38.43000000	-8.47933390	2.00554934	-8.66046795	0.00000035	0	-0.00000023	32.09883245	757.68253274	-72.39113921	0.95204056	0	-0.35950032	0	-0.00000322	0	0	1.21592114	0.00000000
38.44000000	-8.47999231	1.97848271	-8.79019390	0.00000123	0	-0.00000077	32.94657891	749.68385023	-70.86679661	0.94779541	0	-0.35947462	0	-0.00000801	0	0	1.51615873	-0.00000000
38.45000000	-8.48248012	1.95992300	-8.88241366	0.00000244	0	-0.00000148	34.26819381	742.86645025	-69.58240768	0.94333228	0	-0.35941371	0	-0.00001227	0	0	1.76876324	-0.00000000
38.46000000	-8.48976003	1.93118385	-8.93522074	0.00000278	0	-0.00000164	36.08810240	736.91018610	-68.63078657	0.93857710	0	-0.35933043	0	-0.00000718	0	0	2.06461445	-0.00000000
38.47000000	-8.52833623	1.92137361	-8.99172487	-0.00000074	0	0.00000063	38.36175323	731.71859391	-67.88528754	0.93353900	0	-0.35924402	0	0.00002457	0	0	2.41269082	0
38.48000000	-8.59319679	1.97843955	-9.05627187	-0.00001281	0	0.00000812	41.01087263	727.51889067	-67.36771303	0.92824095	0	-0.35919703	0	0.00010240	0	0	2.74836128	0
38.49000000	-8.64123582	2.06171342	-9.15125708	-0.00003640	0	0.00002246	43.96920286	724.46576042	-67.21243981	0.92269566	0	-0.35924192	0	0.00022005	0	0	3.06786657	0
